<!DOCTYPE svg PUBLIC "-//W3C//DTD SVG 1.1//EN" "http://www.w3.org/Graphics/SVG/1.1/DTD/svg11.dtd">
<!-- Uploaded to: SVG Repo, www.svgrepo.com, Transformed by: SVG Repo Mixer Tools -->
<svg fill="#ff5900" height="800px" width="800px" version="1.1" id="Capa_1" xmlns="http://www.w3.org/2000/svg" xmlns:xlink="http://www.w3.org/1999/xlink" viewBox="0 0 290 290" xml:space="preserve" stroke="#ff5900">
<g id="SVGRepo_bgCarrier" stroke-width="0"/>
<g id="SVGRepo_tracerCarrier" stroke-linecap="round" stroke-linejoin="round"/>
<g id="SVGRepo_iconCarrier"> <g> <path id="rect27196" d="M5,70c-2.761,0-5,2.239-5,5v140c0,2.761,2.239,5,5,5h220c1.46,0,2.847-0.638,3.797-1.746l60-70 c1.605-1.872,1.605-4.635,0-6.508l-60-70C227.847,70.638,226.46,70,225,70H5z M10,80h212.701l55.713,65l-55.713,65H10V80z M20,87.5 c-1.381,0-2.5,1.119-2.5,2.5v35c-0.02,1.381,1.084,2.516,2.465,2.535s2.516-1.084,2.535-2.465c0-0.024,0-0.047,0-0.071V92.5H85 c1.381,0.02,2.516-1.084,2.535-2.465c0.02-1.381-1.084-2.516-2.465-2.535c-0.024,0-0.047,0-0.071,0H20z M215,120 c-13.748,0-25,11.252-25,25s11.252,25,25,25s25-11.252,25-25S228.748,120,215,120z M215,130c8.343,0,15,6.657,15,15 c0,8.344-6.657,15-15,15s-15-6.656-15-15C200,136.657,206.657,130,215,130z M215,132.5c-6.874,0-12.5,5.626-12.5,12.5 c-0.02,1.381,1.084,2.516,2.465,2.535c1.381,0.02,2.516-1.084,2.535-2.465c0-0.024,0-0.047,0-0.071c0-4.172,3.328-7.5,7.5-7.5 c1.381,0.02,2.516-1.084,2.535-2.465c0.02-1.381-1.084-2.516-2.465-2.535C215.047,132.5,215.024,132.5,215,132.5z"/> </g> </g>
</svg>